<mxfile host="app.diagrams.net" agent="Mozilla/5.0 (Windows NT 10.0; Win64; x64) AppleWebKit/537.36 (KHTML, like Gecko) Chrome/136.0.0.0 Safari/537.36" version="27.0.6">
  <diagram name="Trang-1" id="p-AaW_fg5K8r-M7C0UEP">
    <mxGraphModel dx="770" dy="930" grid="1" gridSize="10" guides="1" tooltips="1" connect="1" arrows="1" fold="1" page="1" pageScale="1" pageWidth="827" pageHeight="1169" math="0" shadow="0">
      <root>
        <mxCell id="0" />
        <mxCell id="1" parent="0" />
        <mxCell id="jGcpJ4L4iB1kGS2EZdsp-4" value="Người dùng" style="swimlane;fontStyle=1;align=left;verticalAlign=middle;childLayout=stackLayout;horizontal=1;startSize=29;horizontalStack=0;resizeParent=1;resizeParentMax=0;resizeLast=0;collapsible=0;marginBottom=0;html=1;whiteSpace=wrap;" parent="1" vertex="1">
          <mxGeometry x="110" y="160" width="210" height="70" as="geometry" />
        </mxCell>
        <mxCell id="jGcpJ4L4iB1kGS2EZdsp-6" value="id = 1&lt;div&gt;tên= &#39;Nguyễn Văn A&#39;&lt;/div&gt;" style="text;html=1;strokeColor=none;fillColor=none;align=left;verticalAlign=middle;spacingLeft=4;spacingRight=4;overflow=hidden;rotatable=0;points=[[0,0.5],[1,0.5]];portConstraint=eastwest;whiteSpace=wrap;" parent="jGcpJ4L4iB1kGS2EZdsp-4" vertex="1">
          <mxGeometry y="29" width="210" height="41" as="geometry" />
        </mxCell>
        <mxCell id="SokqTSgsTaMbX1U8fRO0-21" style="endArrow=none;edgeStyle=orthogonalEdgeStyle;rounded=0;orthogonalLoop=1;jettySize=auto;html=1;entryX=0;entryY=0.5;entryDx=0;entryDy=0;" edge="1" parent="1" source="SokqTSgsTaMbX1U8fRO0-23" target="SokqTSgsTaMbX1U8fRO0-1">
          <mxGeometry relative="1" as="geometry">
            <Array as="points">
              <mxPoint x="700" y="210" />
            </Array>
          </mxGeometry>
        </mxCell>
        <mxCell id="jGcpJ4L4iB1kGS2EZdsp-1" value="Giỏ hàng" style="swimlane;fontStyle=1;align=left;verticalAlign=middle;childLayout=stackLayout;horizontal=1;startSize=20;horizontalStack=0;resizeParent=1;resizeParentMax=0;resizeLast=0;collapsible=0;marginBottom=0;html=1;whiteSpace=wrap;" parent="1" vertex="1">
          <mxGeometry x="440" y="360" width="180" height="80" as="geometry" />
        </mxCell>
        <mxCell id="jGcpJ4L4iB1kGS2EZdsp-2" value="id_sach = 9&lt;div&gt;so_luong = &#39;1&#39;&lt;/div&gt;&lt;div&gt;tong_so _tien = &#39;19000&#39;&lt;/div&gt;" style="text;html=1;strokeColor=none;fillColor=none;align=left;verticalAlign=middle;spacingLeft=4;spacingRight=4;overflow=hidden;rotatable=0;points=[[0,0.5],[1,0.5]];portConstraint=eastwest;whiteSpace=wrap;" parent="jGcpJ4L4iB1kGS2EZdsp-1" vertex="1">
          <mxGeometry y="20" width="180" height="60" as="geometry" />
        </mxCell>
        <mxCell id="SokqTSgsTaMbX1U8fRO0-1" value="Sách" style="swimlane;fontStyle=1;align=left;verticalAlign=middle;childLayout=stackLayout;horizontal=1;startSize=29;horizontalStack=0;resizeParent=1;resizeParentMax=0;resizeLast=0;collapsible=0;marginBottom=0;html=1;whiteSpace=wrap;" vertex="1" parent="1">
          <mxGeometry x="730" y="170" width="180" height="80" as="geometry" />
        </mxCell>
        <mxCell id="SokqTSgsTaMbX1U8fRO0-3" value="id_sach = 9&lt;div&gt;name = &#39;Chiến thần sa mạc&#39;&lt;/div&gt;&lt;div&gt;tac_gia = &#39;Vũ Song Long&#39;&lt;/div&gt;" style="text;html=1;strokeColor=none;fillColor=none;align=left;verticalAlign=middle;spacingLeft=4;spacingRight=4;overflow=hidden;rotatable=0;points=[[0,0.5],[1,0.5]];portConstraint=eastwest;whiteSpace=wrap;" vertex="1" parent="SokqTSgsTaMbX1U8fRO0-1">
          <mxGeometry y="29" width="180" height="51" as="geometry" />
        </mxCell>
        <mxCell id="SokqTSgsTaMbX1U8fRO0-4" value="" style="endArrow=none;html=1;edgeStyle=orthogonalEdgeStyle;rounded=0;entryX=1;entryY=0.5;entryDx=0;entryDy=0;" edge="1" parent="1" source="SokqTSgsTaMbX1U8fRO0-8" target="jGcpJ4L4iB1kGS2EZdsp-6">
          <mxGeometry relative="1" as="geometry">
            <mxPoint x="420" y="320" as="sourcePoint" />
            <mxPoint x="370" y="110" as="targetPoint" />
          </mxGeometry>
        </mxCell>
        <mxCell id="SokqTSgsTaMbX1U8fRO0-9" value="" style="endArrow=none;html=1;edgeStyle=orthogonalEdgeStyle;rounded=0;exitX=0;exitY=0.5;exitDx=0;exitDy=0;" edge="1" parent="1" source="jGcpJ4L4iB1kGS2EZdsp-2" target="SokqTSgsTaMbX1U8fRO0-8">
          <mxGeometry relative="1" as="geometry">
            <mxPoint x="490" y="427.5" as="sourcePoint" />
            <mxPoint x="370" y="120" as="targetPoint" />
          </mxGeometry>
        </mxCell>
        <mxCell id="SokqTSgsTaMbX1U8fRO0-10" value="&lt;span style=&quot;font-size: 12px;&quot;&gt;1&lt;/span&gt;" style="edgeLabel;resizable=0;html=1;align=left;verticalAlign=bottom;" connectable="0" vertex="1" parent="SokqTSgsTaMbX1U8fRO0-9">
          <mxGeometry x="-1" relative="1" as="geometry">
            <mxPoint x="-20" as="offset" />
          </mxGeometry>
        </mxCell>
        <mxCell id="SokqTSgsTaMbX1U8fRO0-8" value="thêm,cập nhật" style="text;html=1;align=center;verticalAlign=middle;whiteSpace=wrap;rounded=0;" vertex="1" parent="1">
          <mxGeometry x="330" y="310" width="60" height="30" as="geometry" />
        </mxCell>
        <mxCell id="SokqTSgsTaMbX1U8fRO0-16" value="1" style="edgeLabel;resizable=0;html=1;align=left;verticalAlign=bottom;" connectable="0" vertex="1" parent="1">
          <mxGeometry x="431" y="92" as="geometry">
            <mxPoint x="-103" y="114" as="offset" />
          </mxGeometry>
        </mxCell>
        <mxCell id="SokqTSgsTaMbX1U8fRO0-22" value="" style="endArrow=none;rounded=0;orthogonalLoop=1;jettySize=auto;html=1;entryX=0.5;entryY=1;entryDx=0;entryDy=0;edgeStyle=elbowEdgeStyle;exitX=1;exitY=0.5;exitDx=0;exitDy=0;elbow=vertical;" edge="1" parent="1" source="jGcpJ4L4iB1kGS2EZdsp-2" target="SokqTSgsTaMbX1U8fRO0-23">
          <mxGeometry relative="1" as="geometry">
            <mxPoint x="660" y="400" as="sourcePoint" />
            <mxPoint x="750" y="340" as="targetPoint" />
            <Array as="points">
              <mxPoint x="690" y="410" />
            </Array>
          </mxGeometry>
        </mxCell>
        <mxCell id="SokqTSgsTaMbX1U8fRO0-23" value="chứa" style="text;html=1;align=center;verticalAlign=middle;whiteSpace=wrap;rounded=0;" vertex="1" parent="1">
          <mxGeometry x="670" y="330" width="60" height="30" as="geometry" />
        </mxCell>
        <mxCell id="SokqTSgsTaMbX1U8fRO0-25" value="&lt;span style=&quot;font-size: 12px;&quot;&gt;1&lt;/span&gt;" style="edgeLabel;resizable=0;html=1;align=left;verticalAlign=bottom;" connectable="0" vertex="1" parent="1">
          <mxGeometry x="628" y="408" as="geometry" />
        </mxCell>
        <mxCell id="SokqTSgsTaMbX1U8fRO0-28" value="&lt;span style=&quot;font-size: 12px;&quot;&gt;*&lt;/span&gt;" style="edgeLabel;resizable=0;html=1;align=left;verticalAlign=bottom;" connectable="0" vertex="1" parent="1">
          <mxGeometry x="718" y="219" as="geometry">
            <mxPoint x="-4" y="13" as="offset" />
          </mxGeometry>
        </mxCell>
      </root>
    </mxGraphModel>
  </diagram>
</mxfile>
